# xmcd
#
# Track frame offsets:
#	150
#	20488
#	40978
#	62750
#	79161
#	97797
#	112193
#	124296
#	137284
#	155099
#	171173
#	184683
#
# Disc length: 2671 seconds
#
# Revision: 2
# Processed by: cddbd v1.5PL3 Copyright (c) Steve Scherf et al.
# Submitted via: EasyCDDAExtractor 7.0.0.1
#
DISCID=9d0a6d0c
DTITLE=Various Artist - Rundt om i Danmark
DYEAR=1900
DGENRE=Blues
TTITLE0=West For Wrist - Bagbutikken
TTITLE1=Wesr For Wrist - Duelighedsbevis
TTITLE2=West For Wrist - en fars tanker
TTITLE3=West For Wrist - Gøglerdrengen
TTITLE4=West For Wrist - Hjemlængsel
TTITLE5=West For Wrist - Jæger eller ej?
TTITLE6=West For Wrist - Kystvejen
TTITLE7=West For Wrist - Møllen
TTITLE8=West For Wrist - Naturen er mit kompas
TTITLE9=West For Wrist - Rundt i Danmark
TTITLE10=West For Wrist - Livets gang
TTITLE11=West For Wrist - Farvel min ven
EXTD=
EXTT0=
EXTT1=
EXTT2=
EXTT3=
EXTT4=
EXTT5=
EXTT6=
EXTT7=
EXTT8=
EXTT9=
EXTT10=
EXTT11=
PLAYORDER=
